<svg width="181" height="36" viewBox="0 0 181 36" fill="none" xmlns="http://www.w3.org/2000/svg">
<path d="M0.5 0H180.5V32C180.5 34.2091 178.709 36 176.5 36H4.5C2.29086 36 0.5 34.2091 0.5 32V0Z" fill="#7A66FF"/>
<path d="M95.2129 17.5476L86.7129 13.5476C86.6273 13.5073 86.532 13.4921 86.4382 13.5038C86.3443 13.5155 86.2557 13.5536 86.1826 13.6137C86.1095 13.6737 86.0549 13.7533 86.0253 13.8431C85.9956 13.9329 85.992 14.0293 86.0149 14.1211L86.6209 16.5456L90.4999 18.0001L86.6209 19.4546L86.0149 21.8791C85.9915 21.9709 85.9948 22.0675 86.0244 22.1576C86.0539 22.2476 86.1085 22.3274 86.1817 22.3875C86.2549 22.4477 86.3438 22.4858 86.4378 22.4973C86.5319 22.5088 86.6273 22.4933 86.7129 22.4526L95.2129 18.4526C95.2988 18.4122 95.3714 18.3482 95.4223 18.2681C95.4732 18.188 95.5002 18.095 95.5002 18.0001C95.5002 17.9052 95.4732 17.8122 95.4223 17.7321C95.3714 17.652 95.2988 17.588 95.2129 17.5476Z" fill="white"/>
</svg>
