<svg width="28" height="28" viewBox="0 0 28 28" fill="none" xmlns="http://www.w3.org/2000/svg">
<path d="M13.9999 2.3335C7.56692 2.3335 2.33325 7.56716 2.33325 14.0002C2.33325 20.4332 7.56692 25.6668 13.9999 25.6668C20.4329 25.6668 25.6666 20.4332 25.6666 14.0002C25.6666 7.56716 20.4329 2.3335 13.9999 2.3335ZM15.1666 21.0002H12.8333V18.6668H15.1666V21.0002ZM16.3053 15.301C16.0766 15.4853 15.8561 15.6615 15.6811 15.8365C15.2051 16.3113 15.1678 16.743 15.1666 16.7617V16.9168H12.8333V16.722C12.8333 16.5843 12.8671 15.3488 14.0303 14.1857C14.2578 13.9582 14.5401 13.7272 14.8364 13.4868C15.6928 12.7927 16.2551 12.2863 16.2551 11.5887C16.2415 10.9993 15.9978 10.4386 15.5762 10.0266C15.1545 9.61465 14.5883 9.38406 13.9988 9.38421C13.4092 9.38437 12.8432 9.61524 12.4217 10.0275C12.0002 10.4397 11.7568 11.0004 11.7436 11.5898H9.41025C9.41025 9.05933 11.4694 7.00016 13.9999 7.00016C16.5304 7.00016 18.5896 9.05933 18.5896 11.5898C18.5896 13.453 17.2141 14.5648 16.3053 15.301Z" fill="white"/>
</svg>
