<svg width="28" height="28" viewBox="0 0 28 28" fill="none" xmlns="http://www.w3.org/2000/svg">
<path d="M22.1667 11.6668V8.16683C22.1667 6.88 21.1202 5.8335 19.8333 5.8335H16.3333C16.3333 3.90383 14.763 2.3335 12.8333 2.3335C10.9037 2.3335 9.33333 3.90383 9.33333 5.8335H5.83333C4.5465 5.8335 3.5 6.88 3.5 8.16683V12.8335H4.66667C5.28551 12.8335 5.879 13.0793 6.31658 13.5169C6.75417 13.9545 7 14.548 7 15.1668C7 15.7857 6.75417 16.3792 6.31658 16.8167C5.879 17.2543 5.28551 17.5002 4.66667 17.5002H3.5V22.1668C3.5 23.4537 4.5465 24.5002 5.83333 24.5002H10.5V23.3335C10.5 22.7147 10.7458 22.1212 11.1834 21.6836C11.621 21.246 12.2145 21.0002 12.8333 21.0002C13.4522 21.0002 14.0457 21.246 14.4832 21.6836C14.9208 22.1212 15.1667 22.7147 15.1667 23.3335V24.5002H19.8333C21.1202 24.5002 22.1667 23.4537 22.1667 22.1668V18.6668C24.0963 18.6668 25.6667 17.0965 25.6667 15.1668C25.6667 13.2372 24.0963 11.6668 22.1667 11.6668Z" fill="white"/>
</svg>
