<svg width="13" height="12" viewBox="0 0 13 12" fill="none" xmlns="http://www.w3.org/2000/svg">
<path d="M11.2129 5.54758L2.71288 1.54758C2.62729 1.50731 2.53203 1.49214 2.43816 1.50384C2.34429 1.51554 2.25567 1.55362 2.18258 1.61368C2.10949 1.67373 2.05494 1.75328 2.02526 1.8431C1.99557 1.93291 1.99197 2.02931 2.01488 2.12108L2.62088 4.54558L6.49988 6.00008L2.62088 7.45458L2.01488 9.87908C1.99154 9.97093 1.99484 10.0675 2.02439 10.1576C2.05393 10.2476 2.10851 10.3274 2.18173 10.3875C2.25495 10.4477 2.34379 10.4858 2.43785 10.4973C2.53191 10.5088 2.62731 10.4933 2.71288 10.4526L11.2129 6.45258C11.2988 6.41221 11.3714 6.34821 11.4223 6.26808C11.4732 6.18795 11.5002 6.095 11.5002 6.00008C11.5002 5.90517 11.4732 5.81221 11.4223 5.73208C11.3714 5.65196 11.2988 5.58796 11.2129 5.54758Z" fill="white"/>
</svg>
