<svg width="24" height="24" viewBox="0 0 24 24" fill="none" xmlns="http://www.w3.org/2000/svg">
<path d="M12 15.9995C14.206 15.9995 16 14.2055 16 11.9995V5.99952C16 3.78252 14.215 1.97852 12.021 1.97852C11.9506 1.97894 11.8805 1.98733 11.812 2.00352C10.7853 2.0533 9.81693 2.49587 9.10738 3.23967C8.39783 3.98346 8.00136 4.97156 8 5.99952V11.9995C8 14.2055 9.794 15.9995 12 15.9995Z" fill="white"/>
<path d="M11 19.931V22H13V19.931C16.939 19.436 20 16.073 20 12H18C18 15.309 15.309 18 12 18C8.691 18 6 15.309 6 12H4C4 16.072 7.061 19.436 11 19.931Z" fill="white"/>
</svg>
