<svg width="25" height="24" viewBox="0 0 25 24" fill="none" xmlns="http://www.w3.org/2000/svg">
<path d="M10.8089 3.69999C11.433 3.3 12.1587 3.0874 12.8999 3.0874C13.6411 3.0874 14.3668 3.3 14.9909 3.69999L23.0549 8.86999C23.1602 8.93761 23.2469 9.03051 23.3072 9.14022C23.3674 9.24993 23.3992 9.37297 23.3997 9.49813C23.4002 9.62328 23.3694 9.74657 23.31 9.85676C23.2507 9.96695 23.1647 10.0605 23.0599 10.129L19.8999 12.194V17.751C19.8999 17.9133 19.8473 18.0712 19.7499 18.201L19.7489 18.202L19.7479 18.204L19.7449 18.208L19.7359 18.218C19.701 18.2641 19.6643 18.3088 19.6259 18.352C19.5247 18.4665 19.4186 18.5766 19.3079 18.682C19.0309 18.949 18.6179 19.296 18.0579 19.64C16.9369 20.33 15.2389 21 12.8999 21C10.5609 21 8.8639 20.33 7.7409 19.64C7.29151 19.3662 6.87249 19.0454 6.4909 18.683C6.38086 18.5776 6.27543 18.4675 6.1749 18.353C6.13177 18.3045 6.09041 18.2545 6.0509 18.203L6.0499 18.2C5.95254 18.0702 5.8999 17.9123 5.8999 17.75V12.192L3.8999 10.886V16.25C3.8999 16.4489 3.82089 16.6397 3.68023 16.7803C3.53958 16.921 3.34881 17 3.1499 17C2.95099 17 2.76022 16.921 2.61957 16.7803C2.47892 16.6397 2.3999 16.4489 2.3999 16.25V9.49999C2.3998 9.37159 2.43266 9.24531 2.49535 9.13325C2.55803 9.02119 2.64844 8.9271 2.7579 8.85999L10.8079 3.69999H10.8089ZM15.0189 15.382C14.3888 15.7935 13.6525 16.0127 12.8999 16.0127C12.1473 16.0127 11.411 15.7935 10.7809 15.382L7.3999 13.174V17.47C7.73798 17.8122 8.11643 18.1121 8.5269 18.363C9.4359 18.92 10.8639 19.5 12.8999 19.5C14.9359 19.5 16.3639 18.92 17.2729 18.361C17.6833 18.1104 18.0618 17.8109 18.3999 17.469V13.173L15.0199 15.381L15.0189 15.382ZM14.1819 4.96299C13.4009 4.46299 12.3989 4.46299 11.6179 4.96299L4.5299 9.50699L11.6009 14.127C12.3909 14.642 13.4099 14.642 14.1989 14.127L21.2689 9.50699L14.1819 4.96299Z" fill="white"/>
</svg>
